<svg xmlns="http://www.w3.org/2000/svg" viewBox="0 0 100 100" fill="none">
  <rect width="100" height="100" rx="24" fill="#FAF6F0"/>
  <defs>
    <linearGradient id="gold" x1="0%" y1="0%" x2="100%" y2="100%">
      <stop offset="0%" stop-color="#F5E8D2"/>
      <stop offset="40%" stop-color="#D4A359"/>
      <stop offset="100%" stop-color="#A47432"/>
    </linearGradient>
  </defs>
  <path d="M25 66C32 72 41 74 50 74C59 74 68 72 75 66C68 70 59 72 50 72C41 72 32 70 25 66Z" fill="url(#gold)"/>
  <path d="M50 20C45 32 45 46 50 60C55 46 55 32 50 20Z" fill="url(#gold)"/>
  <path d="M50 32C42 38 36 48 43 58C46 52 48 44 50 32Z" fill="url(#gold)"/>
  <path d="M50 32C58 38 64 48 57 58C54 52 52 44 50 32Z" fill="url(#gold)"/>
  <circle cx="50" cy="46" r="3" fill="#D4A359"/>
</svg>
